<?xml version="1.0" encoding="utf-8"?>
<!-- Generator: Adobe Illustrator 26.2.1, SVG Export Plug-In . SVG Version: 6.00 Build 0)  -->
<svg version="1.1" id="Layer_1" xmlns="http://www.w3.org/2000/svg" xmlns:xlink="http://www.w3.org/1999/xlink" x="0px" y="0px"
	 viewBox="0 0 31 31" style="enable-background:new 0 0 31 31;" xml:space="preserve">
<style type="text/css">
	.st0{opacity:0.7;fill:none;stroke:#FFFFFF;stroke-width:0.9355;enable-background:new    ;}
	.st1{fill:#FFFFFF;}
</style>
<g>
	<circle class="st0" cx="15.5" cy="15.5" r="15"/>
</g>
<g>
	<g>
		<path class="st1" d="M19.9,11.2c-0.8-0.5-1.3-1.3-1.5-2.2c0-0.2-0.1-0.4-0.1-0.6h-2.5l0,9.8c0,1.1-0.9,2-2.1,2
			c-0.3,0-0.7-0.1-1-0.2c-0.7-0.3-1.1-1-1.1-1.8c0-1.1,0.9-2.1,2.1-2.1c0.2,0,0.4,0,0.6,0.1v-1.9v-0.6c-0.2,0-0.4,0-0.6,0
			c-2.5,0-4.5,2-4.5,4.5c0,1.5,0.8,2.9,1.9,3.7c0.7,0.5,1.6,0.8,2.6,0.8c2.5,0,4.5-2,4.5-4.5v-5c1,0.7,2.1,1.1,3.4,1.1v-1.9v-0.5
			C21,11.8,20.4,11.6,19.9,11.2z"/>
	</g>
</g>
</svg>
