<svg width="32" height="32" viewBox="0 0 32 32" fill="none" xmlns="http://www.w3.org/2000/svg">
<circle opacity="0.7" r="15.0322" transform="matrix(-1 0 0 1 15.9551 16)" stroke="white" stroke-width="0.935494"/>
<path d="M22.4207 16.859V21.1638H19.9272V17.1487C19.9272 16.1389 19.5675 15.4512 18.6642 15.4512C17.9745 15.4512 17.5661 15.9141 17.3849 16.3636C17.32 16.5233 17.3011 16.748 17.3011 16.9727V21.1665H14.8075C14.8075 21.1665 14.84 14.3628 14.8075 13.6589H17.3011V14.7229C17.2957 14.731 17.2903 14.7391 17.2849 14.7472H17.3011V14.7229C17.6337 14.2112 18.2233 13.4829 19.5485 13.4829C21.1902 13.4802 22.4207 14.555 22.4207 16.859ZM12.2003 10.0391C11.3457 10.0391 10.7886 10.5995 10.7886 11.3359C10.7886 12.0561 11.3295 12.6328 12.1679 12.6328H12.1841C13.055 12.6328 13.5959 12.0561 13.5959 11.3359C13.5769 10.5995 13.0523 10.0391 12.2003 10.0391ZM10.9373 21.1665H13.4309V13.6562H10.9373V21.1665Z" fill="white"/>
</svg>
