<svg width="293" height="29" viewBox="0 0 293 29" fill="none" xmlns="http://www.w3.org/2000/svg">
<g clip-path="url(#clip0_567_185)">
<path d="M30.7199 1.52036C30.7157 1.48858 30.6797 1.47374 30.6542 1.49281C30.0271 1.96107 24.3803 6.10981 20.9054 5.96147C20.1934 5.68176 18.1975 4.99954 15.854 4.96346C13.5106 4.99949 11.5146 5.68176 10.8027 5.96147C7.32771 6.10981 1.68521 1.96319 1.05591 1.49281C1.02837 1.47374 0.992342 1.48858 0.988104 1.52036C0.93089 1.99073 0.680897 4.63931 2.05175 6.18821C1.97123 8.14603 2.9205 9.53177 4.0795 10.3878C4.09857 10.4005 4.10069 10.4259 4.08798 10.445C2.97347 11.8604 2.36325 13.6191 2.36325 15.4264C2.36325 19.8718 5.98016 23.4908 10.4276 23.4908C10.9277 23.4908 11.4489 23.4378 11.9617 23.3403L15.8223 27.292C15.8392 27.3089 15.8668 27.3089 15.8837 27.292L19.7464 23.3403C20.2591 23.4378 20.7804 23.4908 21.2805 23.4908C25.7258 23.4908 29.3427 19.8718 29.3427 15.4264C29.3427 13.6191 28.7324 11.8604 27.6201 10.445C27.6052 10.4259 27.6095 10.4005 27.6285 10.3878C28.7875 9.53177 29.7368 8.14603 29.6563 6.18821C31.0272 4.63931 30.7771 1.98649 30.7199 1.52036ZM26.3762 7.59726C26.3402 7.61845 26.3529 7.67566 26.3953 7.67566C27.0754 7.69262 27.637 7.54216 28.5162 7.09298C28.5523 7.07603 28.5947 7.10994 28.5819 7.14808C27.6878 10.2543 24.5031 10.7628 21.0537 12.0808C20.7358 12.2015 19.5217 12.5702 18.564 13.3415C17.6423 14.0852 16.8604 14.9899 17.2694 16.6511C17.4093 17.219 17.7059 17.7042 18.0619 18.1322C18.9751 19.2086 20.3693 19.8146 21.9648 19.5773C23.5348 19.3421 24.8464 18.2212 25.2956 16.6977C25.819 14.92 25.1982 13.2398 23.9989 12.2227C23.9777 12.2058 23.982 12.1719 24.0053 12.1613C24.8931 11.763 25.9101 11.301 26.6263 10.9535C26.6411 10.9472 26.656 10.9514 26.6665 10.962C27.6709 12.174 28.2748 13.7293 28.2748 15.4264C28.2748 19.2891 25.1431 22.4208 21.2805 22.4208C20.6427 22.4208 19.9901 22.3233 19.401 22.1644L15.8837 25.7643C15.8668 25.7813 15.8413 25.7813 15.8265 25.7643L12.3071 22.1644C11.718 22.3233 11.0676 22.4208 10.4276 22.4208C6.56496 22.4208 3.4333 19.2891 3.4333 15.4264C3.4333 13.7293 4.03717 12.174 5.04149 10.9641C5.05208 10.9514 5.06904 10.9472 5.08387 10.9535C5.79999 11.3011 6.81496 11.763 7.7006 12.1613C7.72603 12.1719 7.73032 12.2058 7.70908 12.2248C6.50982 13.2419 5.89111 14.9222 6.41234 16.6977C6.86152 18.2212 8.17309 19.3421 9.74531 19.5773C11.3005 19.8083 12.6651 19.2382 13.5783 18.2106C13.6016 18.1831 13.6461 18.2 13.6461 18.2361L13.6482 19.9311L15.784 22.3148C15.8094 22.3424 15.8539 22.3254 15.8539 22.2894V19.6323C15.8539 19.0263 15.7946 18.4458 15.6801 17.8907C15.1398 15.2611 13.5146 13.2292 10.6394 12.0998C7.19622 10.7501 4.02006 10.2543 3.12589 7.14808C3.11529 7.10994 3.15767 7.07603 3.1937 7.0951C4.07304 7.54216 4.63453 7.69262 5.31256 7.67566C5.35495 7.67566 5.36978 7.61845 5.33375 7.59726C3.70226 6.65228 2.03681 5.22204 1.79106 3.19641C1.78682 3.15826 1.83132 3.13284 1.86098 3.15615C4.98629 5.36825 7.54586 6.72215 10.9594 7.0506C10.9594 7.0506 13.1566 6.07172 15.8539 6.03146C18.5512 6.07172 20.7485 7.0506 20.7485 7.0506C24.1641 6.72215 26.7237 5.36825 29.849 3.15615C29.8786 3.13284 29.9231 3.15826 29.9168 3.19641C29.6731 5.22204 28.0056 6.6544 26.3762 7.59726ZM23.4819 15.4264C23.4819 16.6427 22.4966 17.6279 21.2804 17.6279C20.0642 17.6279 19.081 16.6427 19.081 15.4264C19.081 14.2102 20.0663 13.227 21.2804 13.227C22.4945 13.227 23.4819 14.2123 23.4819 15.4264ZM8.22612 15.4264C8.22612 14.2123 9.21142 13.227 10.4276 13.227C11.6439 13.227 12.627 14.2123 12.627 15.4264C12.627 16.6405 11.6417 17.6279 10.4276 17.6279C9.21354 17.6279 8.22612 16.6427 8.22612 15.4264ZM30.0121 24.5983C29.3993 24.5983 28.9007 24.0998 28.9007 23.487C28.9007 22.8742 29.3993 22.3758 30.0121 22.3758C30.6248 22.3758 31.1234 22.8742 31.1234 23.487C31.1234 24.0998 30.6248 24.5983 30.0121 24.5983ZM30.0121 22.6219C29.535 22.6219 29.1469 23.01 29.1469 23.487C29.1469 23.9641 29.5349 24.3522 30.0121 24.3522C30.4892 24.3522 30.8773 23.9641 30.8773 23.487C30.8773 23.01 30.4892 22.6219 30.0121 22.6219ZM30.0498 22.8935C30.1979 22.8935 30.2901 22.9422 30.3459 22.9944C30.3947 23.0415 30.4469 23.1251 30.4469 23.2539C30.4469 23.3271 30.4312 23.4177 30.3563 23.4908C30.3162 23.5292 30.2588 23.5639 30.1943 23.5797L30.5513 24.0551H30.224L29.9104 23.5971V24.0551H29.6422V22.8935H30.0498H30.0498ZM29.9105 23.4211H29.9714C30.0201 23.4211 30.0864 23.4159 30.1316 23.3707C30.1509 23.3515 30.1752 23.3149 30.1752 23.2575C30.1752 23.1913 30.1438 23.1564 30.1211 23.139C30.0777 23.1059 30.0079 23.1025 29.9731 23.1025H29.9104L29.9105 23.4211Z" fill="white"/>
</g>
<path d="M57.1695 8.91325H53.5008V22.5H49.6044V8.91325H45.9357V5.6241H57.1695V8.91325ZM58.0983 22.5V4.05542H61.7417V12.5566C62.1971 12 62.6778 11.6205 63.108 11.3928C63.867 10.988 64.4995 10.912 65.3092 10.912C66.1947 10.912 67.5104 11.0386 68.4971 12.0506C69.5345 13.088 69.6104 14.4795 69.6104 15.3398V22.5H65.967V16.706C65.967 15.9217 65.9417 15.0108 65.3598 14.4542C65.0308 14.1253 64.4742 13.9482 63.9429 13.9482C63.1586 13.9482 62.7031 14.3024 62.5007 14.5048C61.767 15.2133 61.7417 16.3012 61.7417 16.8578V22.5H58.0983ZM75.1717 15.3145H80.1054C80.0801 15.2133 79.903 14.5048 79.3717 13.9988C78.9669 13.6193 78.3849 13.3663 77.6512 13.3663C76.7151 13.3663 76.1584 13.7458 75.8042 14.1C75.5259 14.4036 75.2729 14.8084 75.1717 15.3145ZM83.4705 17.1108V17.4904H75.0452C75.0452 18.0976 75.2729 18.9072 75.7283 19.4133C76.2849 20.0205 77.044 20.1217 77.6006 20.1217C78.1319 20.1217 78.6886 20.0205 79.0681 19.7928C79.1187 19.7675 79.5488 19.4892 79.8524 18.8566L83.2934 19.2108C82.7873 20.8048 81.7753 21.6398 81.1175 22.0446C80.0295 22.7024 78.8151 22.8795 77.55 22.8795C75.8548 22.8795 74.362 22.5759 73.0464 21.2602C72.0596 20.2735 71.3512 18.7807 71.3512 16.9084C71.3512 15.2892 71.9331 13.6193 73.0717 12.4554C74.4379 11.0892 76.1331 10.8361 77.3982 10.8361C78.6633 10.8361 80.4849 11.0639 81.8765 12.5313C83.2175 13.9482 83.4705 15.7193 83.4705 17.1108ZM106.35 5.6241V15.6181C106.35 17.2373 106.147 19.2361 104.477 20.9566C102.858 22.6265 100.986 22.8795 99.2147 22.8795C97.4437 22.8795 95.5714 22.6265 93.9521 20.9566C92.2822 19.2361 92.0798 17.2373 92.0798 15.6181V5.6241H95.9762V15.5169C95.9762 16.2506 96.0268 17.4904 96.8617 18.3506C97.5449 19.0843 98.481 19.2361 99.2147 19.2361C99.9485 19.2361 100.885 19.0843 101.568 18.3506C102.403 17.4904 102.453 16.2506 102.453 15.5169V5.6241H106.35ZM109.613 22.5V11.2157H113.256V12.5566C114.369 11.1398 115.685 10.912 116.747 10.912C117.734 10.912 119.025 11.0892 119.986 12.0506C121.049 13.1133 121.125 14.4542 121.125 15.3651V22.5H117.481V16.706C117.481 15.9723 117.456 15.0361 116.874 14.4542C116.596 14.1759 116.14 13.9482 115.482 13.9482C114.723 13.9482 114.243 14.2518 113.964 14.5554C113.357 15.1627 113.256 15.9723 113.256 16.706V22.5H109.613ZM124.221 11.2157H127.864V22.5H124.221V11.2157ZM123.917 6.40843C123.917 5.21928 124.854 4.28313 126.043 4.28313C127.232 4.28313 128.168 5.21928 128.168 6.40843C128.168 7.59759 127.232 8.53373 126.043 8.53373C124.854 8.53373 123.917 7.59759 123.917 6.40843ZM129.594 11.2157H133.592L136.451 17.2627L139.31 11.2157H143.307L137.589 22.5H135.312L129.594 11.2157ZM147.666 15.3145H152.599C152.574 15.2133 152.397 14.5048 151.866 13.9988C151.461 13.6193 150.879 13.3663 150.145 13.3663C149.209 13.3663 148.652 13.7458 148.298 14.1C148.02 14.4036 147.767 14.8084 147.666 15.3145ZM155.964 17.1108V17.4904H147.539C147.539 18.0976 147.767 18.9072 148.222 19.4133C148.779 20.0205 149.538 20.1217 150.094 20.1217C150.626 20.1217 151.182 20.0205 151.562 19.7928C151.613 19.7675 152.043 19.4892 152.346 18.8566L155.787 19.2108C155.281 20.8048 154.269 21.6398 153.611 22.0446C152.523 22.7024 151.309 22.8795 150.044 22.8795C148.349 22.8795 146.856 22.5759 145.54 21.2602C144.554 20.2735 143.845 18.7807 143.845 16.9084C143.845 15.2892 144.427 13.6193 145.566 12.4554C146.932 11.0892 148.627 10.8361 149.892 10.8361C151.157 10.8361 152.979 11.0639 154.37 12.5313C155.711 13.9482 155.964 15.7193 155.964 17.1108ZM158.238 22.5V11.2157H161.882V12.9867C162.211 12.3542 162.717 11.7723 163.299 11.4181C163.906 11.0386 164.538 10.9373 165.247 10.9373C165.702 10.9373 166.031 10.988 166.436 11.1145L166.233 14.5301C165.753 14.2771 165.221 14.1253 164.589 14.1253C163.805 14.1253 163.223 14.4036 162.767 14.8843C161.958 15.7446 161.882 16.959 161.882 17.9205V22.5H158.238ZM176.298 11.7976L174.856 14.1C174.299 13.7711 173.566 13.4675 172.857 13.4675C172.478 13.4675 172.047 13.5687 171.82 13.7964C171.693 13.9229 171.592 14.1253 171.592 14.3024C171.592 14.5554 171.769 14.7072 171.946 14.8084C172.199 14.9602 172.579 15.0361 173.034 15.188L173.996 15.4916C174.628 15.694 175.286 15.947 175.868 16.4783C176.526 17.0855 176.753 17.7687 176.753 18.6289C176.753 20.1217 176.096 21.0831 175.59 21.5892C174.476 22.7024 173.11 22.8795 171.921 22.8795C170.403 22.8795 168.758 22.5506 167.291 21.2602L168.834 18.806C169.188 19.1096 169.694 19.4639 170.074 19.641C170.58 19.894 171.111 19.9952 171.592 19.9952C171.82 19.9952 172.402 19.9952 172.731 19.7422C172.958 19.5651 173.11 19.2867 173.11 19.0084C173.11 18.806 173.034 18.553 172.705 18.3506C172.452 18.1988 172.123 18.0976 171.592 17.9458L170.681 17.6675C170.023 17.4651 169.34 17.1108 168.859 16.6301C168.328 16.0735 168.05 15.441 168.05 14.5807C168.05 13.4928 168.48 12.5819 169.138 11.9747C170.15 11.0386 171.516 10.8361 172.553 10.8361C174.223 10.8361 175.387 11.2663 176.298 11.7976ZM179.172 11.2157H182.815V22.5H179.172V11.2157ZM178.868 6.40843C178.868 5.21928 179.805 4.28313 180.994 4.28313C182.183 4.28313 183.119 5.21928 183.119 6.40843C183.119 7.59759 182.183 8.53373 180.994 8.53373C179.805 8.53373 178.868 7.59759 178.868 6.40843ZM191.908 14.1506H189.656V22.5H186.013V14.1506H184.748V11.2157H186.013V7.57229H189.656V11.2157H191.908V14.1506ZM194.066 28.294L198.039 21.0578L192.65 11.2157H196.85L200.037 17.3386L203.15 11.2157H207.248L198.165 28.294H194.066ZM227.422 16.8578C227.422 18.3 226.866 19.9193 225.727 21.0578C224.715 22.0699 222.995 22.8795 220.794 22.8795C218.592 22.8795 216.872 22.0699 215.86 21.0578C214.721 19.9193 214.165 18.3 214.165 16.8578C214.165 15.4157 214.721 13.7964 215.86 12.6578C216.872 11.6458 218.592 10.8361 220.794 10.8361C222.995 10.8361 224.715 11.6458 225.727 12.6578C226.866 13.7964 227.422 15.4157 227.422 16.8578ZM220.794 13.9229C219.959 13.9229 219.275 14.2012 218.744 14.7325C218.213 15.2639 217.909 15.947 217.909 16.8578C217.909 17.8952 218.314 18.553 218.744 18.9831C219.2 19.4386 219.857 19.7928 220.819 19.7928C221.628 19.7928 222.312 19.5145 222.843 18.9831C223.374 18.4518 223.678 17.7687 223.678 16.8578C223.678 15.947 223.374 15.2639 222.843 14.7325C222.312 14.2012 221.628 13.9229 220.794 13.9229ZM236.526 14.1506H233.641V22.5H229.998V14.1506H228.682V11.2157H229.998V8.98916C229.998 7.7241 230.125 6.28193 231.263 5.06747C231.997 4.28313 233.034 3.77711 234.426 3.77711C235.235 3.77711 235.893 3.92892 236.5 4.15663V7.34458C236.096 7.09157 235.564 6.91446 235.109 6.91446C234.552 6.91446 234.198 7.16747 234.046 7.36988C233.641 7.9012 233.641 8.78675 233.641 9.31807V11.2157H236.526V14.1506ZM248.482 22.5V14.6313L242.435 5.6241H247.04L250.431 10.8614L253.821 5.6241H258.426L252.379 14.6313V22.5H248.482ZM270.168 16.8578C270.168 18.3 269.611 19.9193 268.472 21.0578C267.46 22.0699 265.74 22.8795 263.539 22.8795C261.338 22.8795 259.617 22.0699 258.605 21.0578C257.466 19.9193 256.91 18.3 256.91 16.8578C256.91 15.4157 257.466 13.7964 258.605 12.6578C259.617 11.6458 261.338 10.8361 263.539 10.8361C265.74 10.8361 267.46 11.6458 268.472 12.6578C269.611 13.7964 270.168 15.4157 270.168 16.8578ZM263.539 13.9229C262.704 13.9229 262.021 14.2012 261.489 14.7325C260.958 15.2639 260.654 15.947 260.654 16.8578C260.654 17.8952 261.059 18.553 261.489 18.9831C261.945 19.4386 262.603 19.7928 263.564 19.7928C264.374 19.7928 265.057 19.5145 265.588 18.9831C266.119 18.4518 266.423 17.7687 266.423 16.8578C266.423 15.947 266.119 15.2639 265.588 14.7325C265.057 14.2012 264.374 13.9229 263.539 13.9229ZM272.44 11.2157H276.083V17.4398C276.083 17.9458 276.134 18.7301 276.716 19.2614C276.969 19.4892 277.424 19.7928 278.234 19.7928C278.917 19.7928 279.448 19.5651 279.777 19.2614C280.308 18.7554 280.384 17.9964 280.384 17.4398V11.2157H284.028V17.794C284.028 19.0843 283.901 20.2988 282.763 21.412C281.472 22.6771 279.575 22.8795 278.234 22.8795C276.842 22.8795 274.97 22.6771 273.679 21.412C272.642 20.4 272.44 19.2614 272.44 18.0217V11.2157ZM286.667 20.6024C286.667 19.312 287.679 18.3 288.969 18.3C290.26 18.3 291.272 19.312 291.272 20.6024C291.272 21.8928 290.26 22.9048 288.969 22.9048C287.679 22.9048 286.667 21.8928 286.667 20.6024Z" fill="white"/>
<defs>
<clipPath id="clip0_567_185">
<rect width="31.7333" height="28" fill="white"/>
</clipPath>
</defs>
</svg>
